<?xml version="1.0" encoding="UTF-8"?>
<svg version="1.1" xmlns="http://www.w3.org/2000/svg" width="128" height="128">
<path d="M0 0 C-0.61875 0.57331055 -0.61875 0.57331055 -1.25 1.15820312 C-5.23805756 4.85694847 -9.21490099 8.567331 -13.1796875 12.29101562 C-14.62737268 13.65016212 -16.07868701 15.00544283 -17.53125 16.359375 C-24.3896308 22.94559784 -31.223154 30.78523202 -32.4375 40.5 C-31.9959191 44.03264723 -31.47586483 45.37360103 -28.8203125 47.6953125 C-26.47215076 49.37832971 -24.02533789 50.86508576 -21.5625 52.375 C-16.18295303 55.69275029 -11.88620412 59.22759177 -9 65 C-8.27541852 73.27923423 -8.76078016 79.81351303 -13 87 C-13.35449219 87.66773437 -13.70898438 88.33546875 -14.07421875 89.0234375 C-21.92193516 102.34227482 -35.2044199 112.72141384 -48 121 C-48.98742188 121.64066406 -49.97484375 122.28132813 -50.9921875 122.94140625 C-57.48970418 127 -57.48970418 127 -61 127 C-59.58120711 123.58602961 -57.99335857 122.0024227 -55 119.875 C-41.52284797 109.69705479 -25.70172877 93.1577605 -22.3984375 75.84765625 C-22.16633538 71.29723304 -22.12848488 69.07465022 -25.078125 65.4375 C-28.91323937 62.23815325 -32.98437758 60.25555261 -37.47265625 58.12695312 C-42.19835339 55.76410456 -44.92662716 53.32675952 -48 49 C-49.68980267 43.73179166 -48.86429571 40.19164391 -46.48828125 35.390625 C-38.02378416 21.79410999 -24.10727789 12.62850538 -11 4 C-10.28344238 3.51192871 -9.56688477 3.02385742 -8.82861328 2.52099609 C-7.7706958 1.82031006 -7.7706958 1.82031006 -6.69140625 1.10546875 C-5.73729858 0.46387817 -5.73729858 0.46387817 -4.76391602 -0.19067383 C-3 -1 -3 -1 0 0 Z " fill="#11BAFC" transform="translate(93,1)"/>
<path d="M0 0 C0.99 0.33 1.98 0.66 3 1 C2.38125 1.57331055 2.38125 1.57331055 1.75 2.15820312 C-2.23805756 5.85694847 -6.21490099 9.567331 -10.1796875 13.29101562 C-11.62737268 14.65016212 -13.07868701 16.00544283 -14.53125 17.359375 C-21.3896308 23.94559784 -28.223154 31.78523202 -29.4375 41.5 C-28.9959191 45.03264723 -28.47586483 46.37360103 -25.8203125 48.6953125 C-23.47215076 50.37832971 -21.02533789 51.86508576 -18.5625 53.375 C-13.18295303 56.69275029 -8.88620412 60.22759177 -6 66 C-5.27541852 74.27923423 -5.76078016 80.81351303 -10 88 C-10.35449219 88.66773437 -10.70898438 89.33546875 -11.07421875 90.0234375 C-18.92193516 103.34227482 -32.2044199 113.72141384 -45 122 C-45.98742188 122.64066406 -46.97484375 123.28132813 -47.9921875 123.94140625 C-54.48970418 128 -54.48970418 128 -58 128 C-58 127.34 -58 126.68 -58 126 C-56.3603125 125.319375 -56.3603125 125.319375 -54.6875 124.625 C-49.58754057 122.08856 -45.77304902 118.39050505 -41.66015625 114.50390625 C-39.47525123 112.44733632 -37.25287156 110.52874995 -34.9375 108.625 C-25.36861438 100.23503252 -15.22964298 88.2144207 -13.65625 75.14453125 C-13.36724305 68.98145809 -13.26911458 64.9472461 -17.5 60.1875 C-18.63702575 59.09333831 -19.79434323 58.01804181 -21 57 C-21.495 57.99 -21.495 57.99 -22 59 C-25.12688787 57.58378621 -27.53900915 55.87668024 -30.125 53.625 C-31.14980469 52.74714844 -31.14980469 52.74714844 -32.1953125 51.8515625 C-35.14848339 48.82168588 -35.92203755 46.56522775 -36.5 42.375 C-36.16297337 32.24547745 -26.75548624 23.63934608 -20 17 C-16.42888817 13.86929338 -12.75164917 10.91026548 -9 8 C-5.79942606 5.47593222 -2.83122589 2.9360861 0 0 Z " fill="#015ECA" transform="translate(90,0)"/>
<path d="M0 0 C0 4.02735399 -1.41828387 4.77898668 -4.1875 7.625 C-9.65473069 13.57514065 -14.13969761 18.86269741 -14.625 27.1875 C-14.34765245 32.15664363 -12.71301819 34.60985296 -9 38 C-7.04317612 39.4252277 -5.05251014 40.71121456 -3 42 C-3 42.33 -3 42.66 -3 43 C-9.45098128 42.73120911 -13.35966082 40.46306779 -18 36 C-20.38273513 32.60640755 -21 30.8225285 -21 26.6875 C-17.91450389 15.30973309 -9.45836073 6.72099986 0 0 Z " fill="#5AE0FD" transform="translate(65,17)"/>
<path d="M0 0 C0.99 0.33 1.98 0.66 3 1 C2.38125 1.57331055 2.38125 1.57331055 1.75 2.15820312 C-2.23805756 5.85694847 -6.21490099 9.567331 -10.1796875 13.29101562 C-11.62737268 14.65016212 -13.07868701 16.00544283 -14.53125 17.359375 C-20.79166708 23.37136284 -28.47562661 31.40338275 -29.1953125 40.45703125 C-29.17210937 41.23433594 -29.14890625 42.01164062 -29.125 42.8125 C-29.10695312 43.60269531 -29.08890625 44.39289062 -29.0703125 45.20703125 C-29.04710937 45.79871094 -29.02390625 46.39039063 -29 47 C-29.66 46.67 -30.32 46.34 -31 46 C-32.47437139 39.99720219 -31.94570137 36.8195414 -28.91015625 31.46875 C-28.45962891 30.74171875 -28.45962891 30.74171875 -28 30 C-28.33 30 -28.66 30 -29 30 C-29 25.25540515 -25.83381899 23.07339208 -22.71484375 19.703125 C-18.42891457 15.43569623 -13.76641079 11.71202295 -9 8 C-5.79985377 5.47528492 -2.83129466 2.93615743 0 0 Z " fill="#005BC5" transform="translate(90,0)"/>
<path d="M0 0 C0 3.23136903 -0.46339628 4.01509955 -2.0625 6.6875 C-3.82291829 10.17020478 -4.60777777 12.94416669 -3.89453125 16.91796875 C-2.32194723 20.57817522 0.46661248 23.16772678 3.28515625 25.921875 C5 28 5 28 5 32 C1.87311213 30.58378621 -0.53900915 28.87668024 -3.125 26.625 C-3.80820312 26.03976563 -4.49140625 25.45453125 -5.1953125 24.8515625 C-8.24854655 21.71902367 -8.94549407 19.55414367 -9.375 15.1875 C-9.2434583 10.47830711 -7.72079847 7.82382487 -5 4 C-2.25 1.5625 -2.25 1.5625 0 0 Z " fill="#0068D5" transform="translate(63,27)"/>
<path d="M0 0 C0.66 0.33 1.32 0.66 2 1 C0.62328125 2.17755859 0.62328125 2.17755859 -0.78125 3.37890625 C-3.31566711 5.54711805 -5.84615392 7.7198259 -8.375 9.89453125 C-10.40406714 11.63813035 -12.4409525 13.36585277 -14.5 15.07421875 C-19.0854691 18.91634032 -22.61684613 23.06623393 -26 28 C-26.66 27.67 -27.32 27.34 -28 27 C-26.31268143 23.29115966 -24.0622868 20.6722904 -21.33984375 17.68359375 C-19.78521084 15.92781556 -19.78521084 15.92781556 -19 13 C-17.46533203 11.68139648 -17.46533203 11.68139648 -15.5078125 10.37109375 C-14.80269531 9.89349609 -14.09757812 9.41589844 -13.37109375 8.92382812 C-12.62988281 8.43333984 -11.88867188 7.94285156 -11.125 7.4375 C-10.39152344 6.94314453 -9.65804687 6.44878906 -8.90234375 5.93945312 C-6.93986954 4.61862577 -4.97151573 3.30727649 -3 2 C-2.01 1.34 -1.02 0.68 0 0 Z " fill="#07AFF9" transform="translate(85,3)"/>
<path d="M0 0 C0.66 0.33 1.32 0.66 2 1 C-18.75557078 25.01429566 -18.75557078 25.01429566 -29 27 C-26.14959264 24.06051741 -23.22717719 21.29866633 -20.125 18.625 C-16.23221504 15.25271924 -12.59601245 11.68415 -9 8 C-6.13005636 5.06331348 -3.36092769 2.36509726 0 0 Z " fill="#32C3F7" transform="translate(62,99)"/>
<path d="M0 0 C0.33 0 0.66 0 1 0 C1.71023571 12.76451406 -1.14431407 20.94472201 -9 31 C-9.66 31.33 -10.32 31.66 -11 32 C-11.73828125 30.3515625 -11.73828125 30.3515625 -12 28 C-10.41796875 25.2734375 -10.41796875 25.2734375 -8.1875 22.375 C-7.45917969 21.41335937 -6.73085937 20.45171875 -5.98046875 19.4609375 C-4 17 -4 17 -2 15 C-1.5342637 12.44132526 -1.16515752 9.95312092 -0.875 7.375 C-0.78863281 6.66859375 -0.70226562 5.9621875 -0.61328125 5.234375 C-0.40118817 3.49049859 -0.19959009 1.7453516 0 0 Z " fill="#014FB5" transform="translate(83,66)"/>
<path d="M0 0 C1.12894876 0.93274109 2.25300876 1.87140122 3.375 2.8125 C4.00148438 3.33457031 4.62796875 3.85664062 5.2734375 4.39453125 C7.65681605 6.61074976 8.91464627 8.30009945 9.3125 11.5625 C9.1578125 12.7690625 9.1578125 12.7690625 9 14 C8.01 14.66 7.02 15.32 6 16 C5.38125 14.1746875 5.38125 14.1746875 4.75 12.3125 C3.66590861 9.36252055 2.76232227 7.70290283 0.75 5.1875 C0.1725 4.465625 -0.405 3.74375 -1 3 C-0.67 2.01 -0.34 1.02 0 0 Z " fill="#02A3F9" transform="translate(68,56)"/>
<path d="M0 0 C3.3975348 1.40587647 5.08760929 2.85590002 7 6 C7.36328125 8.7265625 7.36328125 8.7265625 7.3125 11.625 C7.30863281 12.58664063 7.30476563 13.54828125 7.30078125 14.5390625 C7 17 7 17 5 19 C4.98582031 18.33613281 4.97164063 17.67226562 4.95703125 16.98828125 C4.70325291 10.98671628 4.70325291 10.98671628 1.375 6.125 C0.59125 5.42375 -0.1925 4.7225 -1 4 C-0.8125 1.6875 -0.8125 1.6875 0 0 Z " fill="#42D4FC" transform="translate(66,60)"/>
<path d="M0 0 C0.5775 0.226875 1.155 0.45375 1.75 0.6875 C1.1725 1.3475 0.595 2.0075 0 2.6875 C-4.95478073 9.2938743 -6.94273433 14.37468801 -6.25 22.6875 C-6.91 22.3575 -7.57 22.0275 -8.25 21.6875 C-9.72437139 15.68470219 -9.19570137 12.5070414 -6.16015625 7.15625 C-5.85980469 6.6715625 -5.55945312 6.186875 -5.25 5.6875 C-5.58 5.6875 -5.91 5.6875 -6.25 5.6875 C-6.25 4.6975 -6.25 3.7075 -6.25 2.6875 C-4.08146295 0.51896295 -3.10906228 -0.43181421 0 0 Z " fill="#014DB2" transform="translate(67.25,24.3125)"/>
<path d="M0 0 C19.54256317 10.58142168 19.54256317 10.58142168 21.73828125 17.23828125 C21.82464844 17.81964844 21.91101563 18.40101562 22 19 C21.34 18.29875 20.68 17.5975 20 16.875 C15.24005606 12.12857863 10.26773812 8.43745371 4 6 C1.6875 4 1.6875 4 0 2 C0 1.34 0 0.68 0 0 Z " fill="#0247A9" transform="translate(61,47)"/>
<path d="M0 0 C2.140625 0.39453125 2.140625 0.39453125 4 1 C1.73437454 2.50842171 -0.53686163 4.00682251 -2.8125 5.5 C-3.45509766 5.92925781 -4.09769531 6.35851562 -4.75976562 6.80078125 C-9.66015625 10 -9.66015625 10 -13 10 C-13 9.34 -13 8.68 -13 8 C-12.22076172 7.63648437 -12.22076172 7.63648437 -11.42578125 7.265625 C-8.01406119 5.62598135 -5.1678519 4.14114819 -2.25 1.6875 C-1.5075 1.130625 -0.765 0.57375 0 0 Z " fill="#0A59B8" transform="translate(45,118)"/>
<path d="M0 0 C0.66 0.33 1.32 0.66 2 1 C-1.96 4.3 -5.92 7.6 -10 11 C-10.99 10.34 -11.98 9.68 -13 9 C-11.39612733 7.8745809 -9.79189084 6.74968028 -8.1875 5.625 C-7.29417969 4.99851562 -6.40085937 4.37203125 -5.48046875 3.7265625 C-3.66732122 2.46449761 -1.83811789 1.22541192 0 0 Z " fill="#069FF1" transform="translate(85,3)"/>
<path d="M0 0 C0.598125 0.350625 1.19625 0.70125 1.8125 1.0625 C1.8125 4.0625 1.8125 4.0625 0.8125 6.0625 C-1.1675 5.4025 -3.1475 4.7425 -5.1875 4.0625 C-4.5275 3.4025 -3.8675 2.7425 -3.1875 2.0625 C-3.8475 1.4025 -4.5075 0.7425 -5.1875 0.0625 C-2.1875 -0.9375 -2.1875 -0.9375 0 0 Z " fill="#21C3FC" transform="translate(64.1875,56.9375)"/>
<path d="M0 0 C0.99 0.33 1.98 0.66 3 1 C-0.3 3.97 -3.6 6.94 -7 10 C-7.99 9.67 -8.98 9.34 -10 9 C-9.0925 8.2575 -8.185 7.515 -7.25 6.75 C-4.6930577 4.62325416 -2.30889807 2.39770184 0 0 Z " fill="#0B6AC6" transform="translate(90,0)"/>
<path d="M0 0 C0.66 0.66 1.32 1.32 2 2 C0.58994275 3.15395711 -0.82833458 4.29787466 -2.25 5.4375 C-3.43335938 6.39462891 -3.43335938 6.39462891 -4.640625 7.37109375 C-6.86247492 8.90505305 -8.36743482 9.57130246 -11 10 C-7.50640535 6.40365256 -3.88901869 3.16548033 0 0 Z " fill="#1699E5" transform="translate(44,116)"/>
<path d="M0 0 C0 3.58912412 -0.66436554 4.10857029 -3 6.6875 C-3.556875 7.31011719 -4.11375 7.93273437 -4.6875 8.57421875 C-5.120625 9.04472656 -5.55375 9.51523437 -6 10 C-6.99 9.34 -7.98 8.68 -9 8 C-6.03 5.36 -3.06 2.72 0 0 Z " fill="#4CD4FA" transform="translate(65,17)"/>
<path d="M0 0 C0.99 0.33 1.98 0.66 3 1 C0.69 3.31 -1.62 5.62 -4 8 C-4.33 6.68 -4.66 5.36 -5 4 C-2.6875 1.9375 -2.6875 1.9375 0 0 Z " fill="#0152BB" transform="translate(79,10)"/>
<path d="M0 0 C1.72526042 1.07421875 3.45052083 2.1484375 5.17578125 3.22265625 C5.17578125 3.55265625 5.17578125 3.88265625 5.17578125 4.22265625 C-1.34729567 3.60727163 -1.34729567 3.60727163 -3.76171875 1.66015625 C-4.11234375 1.18578125 -4.46296875 0.71140625 -4.82421875 0.22265625 C-1.82421875 -0.77734375 -1.82421875 -0.77734375 0 0 Z " fill="#3DD3FD" transform="translate(56.82421875,55.77734375)"/>
<path d="M0 0 C0.66 0.33 1.32 0.66 2 1 C-3.75 6 -3.75 6 -6 6 C-4.98545548 3.4636387 -4.3146444 2.20648539 -2 0.6875 C-1.34 0.460625 -0.68 0.23375 0 0 Z " fill="#024CB1" transform="translate(55,112)"/>
</svg>
