<?xml version="1.0" encoding="utf-8"?>
<!-- Generator: Adobe Illustrator 25.4.1, SVG Export Plug-In . SVG Version: 6.00 Build 0)  -->
<svg version="1.1" xmlns="http://www.w3.org/2000/svg" xmlns:xlink="http://www.w3.org/1999/xlink" x="0px" y="0px"
	 viewBox="0 0 1024 1024" style="enable-background:new 0 0 1024 1024;" xml:space="preserve">
<style type="text/css">
	.st1{fill-rule:evenodd;clip-rule:evenodd;fill:#2DC5F7;}
</style>
<g id="图层_9">
	<g>
		<g>
			<path class="st1" d="M554.91,456.8c-31.23-111.03-28.95-136.77-143-168.52c0-0.33,0-0.66,0-0.99
				c8.55-5.58,17.1-11.17,25.64-16.75c18.68-14.1,35.87-38.2,43.39-63.07c30.06-99.3-48.1-173.73-139.06-172.46
				c-14.92,5.89-30.84,5.22-44.38,10.84c-45.07,18.7-92.82,75.83-74.95,148.81c4.27,11.82,8.55,23.65,12.82,35.48
				c8.5,16.37,23.96,32.75,38.46,43.36c6.41,4.69,17.45,7.04,20.71,14.78C192.51,317.1,181.3,336.99,156.48,442.02
				c-8.55,48.28-17.1,96.58-25.64,144.87c-6.74,38.02,28.1,71.41,64.1,56.17c11.72-4.96,17.94-15.79,27.61-22.67
				c6.15,7.42-2.42,65.37-2.96,80.81c-3.29,39.09-6.58,78.19-9.86,117.27c-5.42,30.43,1.19,61.55-7.89,88.69
				c-3.63,10.84-18.21,15.81-22.68,27.59c-5.93,15.62,4.48,28.17,14.79,33.51c33.96,17.59,114.51,7.22,130.18-18.72
				c8.42-13.94-1.73-43.83,1.97-64.06c8.88-72.26,17.75-144.55,26.63-216.81c0-0.66,0-1.31,0-1.97c9.97,11.5,5.66,39.49,9.86,56.17
				c7.23,48.94,14.47,97.9,21.7,146.84c7.7,32.85-9.19,73.26,13.81,88.69c33.06,22.19,120.79,29.51,139.06-9.85
				c-0.76-22.82-15.05-24.19-23.67-37.45c-2.3-11.82-4.6-23.65-6.9-35.48c-7.89-84.09-15.78-168.2-23.67-252.28
				c0.99-0.99,1.97-1.97,2.96-2.96c9.24,6.56,15.61,17.78,26.63,22.67c35.67,15.82,76.31-18.45,67.06-57.16
				C571.35,542.87,563.13,499.83,554.91,456.8z M242.28,130.61c11.1-34.7,37.65-60.27,71.01-72.93c11.18-1.97,22.36-3.94,33.53-5.91
				c81.04-0.59,147.03,72.32,114.4,159.65c-14.21,38.03-49.75,61.3-93.69,69.97C284.91,297.69,217.5,208.07,242.28,130.61z
				 M199.88,616.45c-2.63-6.57-5.26-13.14-7.89-19.71c-3.52-2.48-3.56-3.58-9.86-3.94c-0.33,0-0.66,0-0.99,0
				c-7.95,11.61,1.35,23.84,6.9,33.51c-17.58,16.3-46.64-13.59-41.42-35.48c3.94-16.51,13.71-16.01,27.61-22.67
				C196.83,569.81,230.13,607.4,199.88,616.45z M217.63,572.11c-19.84-6.84-33.27-26.41-62.13-13.8
				c-3.44-5.11,10.65-85.65,14.79-95.59c0.99-1.31,1.97-2.63,2.96-3.94c19.95,9.34,37.74,10.36,50.3,26.61
				C221.57,514.29,219.6,543.2,217.63,572.11z M223.55,462.72c-13.21-8.57-30.26-17.6-49.31-19.71
				c4.11-47.71,24.54-96.82,58.19-116.29c26.63-15.4,62.09-15.03,83.83-34.49c8.22,1.64,16.44,3.28,24.66,4.93
				c5.62,4.46,2.96,62.63,2.96,75.88c0.66,81.46,1.31,162.94,1.97,244.4c-5.43,6.85-22.7,1.02-32.54,0.99
				c-31.11-0.11-56.96-8.78-82.84-12.81c0.91-54.32,5.45-124.18,14.79-175.42c3.33-18.26,6.95-50.35-7.89-52.23
				c-0.33,0-0.66,0-0.99,0c-11.09,16.44-9.55,60.16-10.85,83.77C224.86,462.06,224.2,462.39,223.55,462.72z M316.25,818.48
				c-2.3,26.28-4.6,52.56-6.9,78.84c-3.07,19.4,7.63,38.8-4.93,48.29c-19,14.35-94.84,26.97-109.47,0
				c2.47-38.6,46.82-15.47,66.08-17.74c11.13-20.21-23.71-22.15-42.41-20.7c0-0.66,0-1.31,0-1.97c8.94-2.77,19.87-11.19,33.53-7.88
				c12.11,2.93,17.75,13.4,28.6,8.87c0.66-1.97,1.31-3.94,1.97-5.91c-10.39-20.44-36.62-16.58-59.17-11.83c0-0.33,0-0.66,0-0.99
				c18.22-26.59,45.66-11.82,69.03-5.91c1.97-1.64,3.94-3.28,5.92-4.93c-0.33-1.31-0.66-2.63-0.99-3.94
				c-11.32-24.48-55.82-15.34-72.98-3.94c-3.27-5.16,5.27-107.61,8.88-121.21c28.9,1.3,58.43,9.38,89.74,9.85
				C327.47,773.54,319.48,802.97,316.25,818.48z M367.53,645.03c-7.06-3.61-15.7-4.73-24.66-1.97
				c-10.1,14.99-15.19,76.27-16.77,98.55c-0.33,0.33-0.66,0.66-0.99,0.99c-27.69-3.75-63.89-1.01-87.77-10.84
				c-3.91-3.08,1.61-98.26,5.92-106.43c65.3,7.05,156.32,21.04,220.91,0c0.99,0.66,1.97,1.31,2.96,1.97
				c2.96,34.49,5.92,68.99,8.88,103.48c-27.04,8.6-61.07,4.38-90.73,11.83C377.08,735.09,370.6,661.33,367.53,645.03z
				 M489.82,866.77c-3.99,2.44-19.84-7.84-27.61-9.85c-21.86-5.68-39.84,5.87-48.32,14.78c0.33,1.64,0.66,3.28,0.99,4.93
				c1.92,3.46,2.52,3.86,6.9,4.93c16.66-8.97,58.06-18.06,67.06,6.9c-22.32-6.29-41.38-4.91-57.2,6.9
				c-0.66,2.63-1.31,5.26-1.97,7.88c11.66,9.09,17.49-3.03,30.57-5.91c11.7-2.58,21.65,2.73,29.59,4.93
				c0.66,0.99,1.31,1.97,1.97,2.96c0,0.33,0,0.66,0,0.99c-15.03-1.01-61.01,9.28-36.49,21.68c7.2,1.75,9.85-4.09,15.78-5.91
				c20.22-6.22,42.06,4.93,47.34,17.74c0.33,2.3,0.66,4.6,0.99,6.9c-26.97,28.33-86.87,7.95-113.41-3.94
				c-7.78-14.4,0.57-41.03-2.96-60.11c-4.6-29.56-9.21-59.13-13.81-88.69c-2.57-12.52-0.85-24.69-4.93-34.49
				c21.8-12.63,63.53,1.02,84.81-11.83c2.96,0,5.92,0,8.88,0C481.93,787.27,485.88,827.02,489.82,866.77z M480.95,462.72
				c-2.63-26.93-5.26-53.88-7.89-80.81c-1.97-1.31-3.94-2.63-5.92-3.94c-1.97,0-3.94,0-5.92,0c-8.36,14.54-1.33,49.12,1.97,65.04
				c1.64,24.96,3.29,49.93,4.93,74.9c5.35,26.2,8.68,59.9,9.86,87.71c-29.86,11.73-75.78,15.28-114.4,14.78
				c-1.31-107.74-2.63-215.5-3.94-323.24c8.88-1.31,17.75-2.63,26.63-3.94c13.99,1.16,24.03,13.22,36.49,17.74
				c13.81,3.61,27.62,7.23,41.42,10.84c42.04,17.1,61.84,70.17,69.03,121.21C511.38,446.05,498.54,458.78,480.95,462.72z
				 M482.92,486.37c10.25-15.27,26.1-16.18,42.41-25.62c3.62,0,7.23,0,10.85,0c7.66,13.72,19.84,79.38,20.71,98.55
				c-26.12-12.46-47.66-0.18-64.1,12.81C482.34,557.83,487.99,507.39,482.92,486.37z M523.35,628.28c-0.66-0.33-1.31-0.66-1.97-0.99
				c3.3-10.61,10.63-15.62,10.85-29.56c-0.33-0.66-0.66-1.31-0.99-1.97c-3.37-2.11-4.61-2.96-10.85-2.96
				c-4.27,8.54-8.55,17.08-12.82,25.62c-5.35-4.15-8.02-10.06-10.85-16.75c2.83-23.3,16.21-24.54,33.53-33.51
				C582.77,568.91,566.02,640.35,523.35,628.28z"/>
			<path class="st1" d="M247.22,593.79c3.52,2.48,3.56,3.58,9.86,3.94c0.33,0,0.66,0,0.99,0c9.47-13.26,10.2-69.09,9.86-91.65
				c0-0.33,0-0.66,0-0.99c-3.92-3.04-4.17-5.15-10.85-5.91c-0.66,0.33-1.31,0.66-1.97,0.99
				C247.31,514.65,244.99,574.34,247.22,593.79z"/>
			<path class="st1" d="M450.37,499.18c-1.97,0-3.94,0-5.92,0c-9.02,13.7-1.62,76.77,1.97,95.59c3.25,2.04,3.96,2.83,9.86,2.96
				c0.66-0.33,1.31-0.66,1.97-0.99c5.29-9.07,1.85-79.79-2.96-91.65C453.66,503.12,452.02,501.15,450.37,499.18z"/>
			<path class="st1" d="M873.46,929.84c0-0.99,0-1.97,0-2.96c3.94-2.96,7.89-5.91,11.83-8.87c7.84-11.29,1.78-31.26-9.86-33.51
				c-2.63-31.86-5.26-63.73-7.89-95.59c4.26-2.52,7.65-4.15,9.86-8.87c3.91-5.37,2.29-20.88-0.99-25.62
				c-3.29-1.97-6.58-3.94-9.86-5.91c-0.66-5.91-1.31-11.83-1.97-17.74c-1.97-10.18-3.94-20.37-5.92-30.55
				c4.45-24.12,16.93-64.6,0.99-87.71c-14.11-20.46-57.36-25.18-67.06,2.96c-0.99,0.66-1.97,1.31-2.96,1.97
				c-15.94-14.5-18.07-25.36-51.28-24.64c-11.21,7.65-22.01,9.24-26.63,23.65c-0.66,0.33-1.31,0.66-1.97,0.99
				c-5.59-6.24-11.18-12.48-16.77-18.72c-11.42-6.45-28.03-3.34-37.48,1.97c-23.29,13.1-27.81,48.88-19.72,83.77
				c1.64,7.55,3.29,15.11,4.93,22.67c-2.3,13.8-4.6,27.59-6.9,41.39c-5.92,9.26-18.23,9.89-12.82,29.56
				c2.43,6.07,5.84,8.37,11.83,10.84c-1.64,29.23-3.29,58.48-4.93,87.71c-3.63,14.86-12.93,7.36-12.82,36.46
				c4.42,4.94,8.82,8.46,13.81,12.81c0,0.99,0,1.97,0,2.96c-6.25,7.56-29.68,22.02-15.78,36.46c10.12,17.72,28.21-2.46,38.46-4.93
				c9.73,11.97,4.8,28.61,27.61,28.58c3.21-2.79,5.86-3.7,7.89-7.88c7.58-5.09,29.61-0.31,43.39,1.97
				c28.99,4.8,59.36-3.64,84.81-5.91c3.87,8.44,6.7,12.26,19.72,11.83c6.94-6.37,9.47-10.14,8.88-24.64
				c2.96-1.64,5.92-3.28,8.88-4.93c10.86,8.17,27.57,20.63,39.45,3.94c0.66-1.97,1.31-3.94,1.97-5.91
				C893.74,941.55,883.09,936.3,873.46,929.84z M869.51,897.32c5.51,2.14,5.47,5,4.93,12.81c-0.66,0-1.31,0-1.97,0
				c-10.85,2.3-21.7,4.6-32.54,6.9c0-4.6,0-9.2,0-13.8C849.79,901.26,859.65,899.29,869.51,897.32z M866.55,763.29
				c0,3.61,0,7.23,0,10.84c-8.22,1.97-16.44,3.94-24.66,5.91c0-4.6,0-9.2,0-13.8C850.12,765.26,858.34,764.28,866.55,763.29z
				 M849.79,790.88c1.31,0.33,2.63,0.66,3.94,0.99c2.3,24.96,4.6,49.93,6.9,74.9c-1.31,0.66-2.63,1.31-3.94,1.97
				c-8.22-4.27-16.44-8.54-24.66-12.81c0.99-19.71,1.97-39.42,2.96-59.13C838.03,792.28,844.89,793.28,849.79,790.88z M835,755.41
				c0-3.28,0-6.57,0-9.85c2.9-4.47,8.76-4.72,12.82-7.88c1.31,0.33,2.63,0.66,3.94,0.99c0.66,3.94,1.31,7.88,1.97,11.83
				C848.62,753.36,843.04,755.38,835,755.41z M851.76,624.34c3.27,16.65,2.05,37.12,0,54.2c-7.16-3.31-10.03-13.64-15.78-18.72
				c0.45-16.25,6.37-25.17,10.85-36.46C848.47,623.68,850.12,624.01,851.76,624.34z M817.24,608.57c6.9,0.66,13.81,1.31,20.71,1.97
				c0.33,1.31,0.66,2.63,0.99,3.94c-6.63,9.28-12.13,19.06-13.81,33.51c-8.88-3.61-17.75-7.23-26.63-10.84
				c-0.33-0.99-0.66-1.97-0.99-2.96C802.32,620.53,807.09,616.42,817.24,608.57z M744.26,605.61c23.53-0.16,26.73,11.45,36.49,24.64
				c0,0.33,0,0.66,0,0.99c-15.59,3.22-44.16-0.08-62.13,0.99C720.7,614.75,732.25,613.15,744.26,605.61z M712.71,646.02
				c7.23-0.99,14.47-1.97,21.7-2.96c65.42-1,113.76,18.74,114.4,80.81c-4.27,1.97-8.55,3.94-12.82,5.91c-0.33,0-0.66,0-0.99,0
				c-9.44-37.9-7.61-55.26-42.41-68c-60.84-22.27-127.38,4.6-126.23,65.04c-0.33,0.33-0.66,0.66-0.99,0.99
				c-3.62-0.99-7.23-1.97-10.85-2.96c-4.62-7.94-0.86-18.29,1.97-26.61C665.84,670.81,684.15,653.79,712.71,646.02z M808.37,929.84
				c0,0.99,0,1.97,0,2.96c-18.77,6.3-94.11,8.29-111.44,0c-4.41-7.25,15.27-32.88-6.9-38.43c-9.01-15.26-9.29-71.87-8.88-95.59
				c12.09-6.59,23.6-37.37,0.99-41.39c-0.33-2.3-0.66-4.6-0.99-6.9c20.71,2.63,41.42,5.26,62.13,7.88
				c6.89,7.87-6.68,30.13-2.96,45.33c1.37,3.04,1.32,3.21,3.94,4.93c2.5,1.99,5.82,2.17,10.85,1.97c10.28-13.92,5.16-32.28,0-50.26
				c5.19-3.99,62.89-10.22,66.08-8.87c0,0.99,0,1.97,0,2.96c-14.99,6.67-24.75,36.82-1.97,42.38c8.79,19.54-3.29,71.37-3.94,94.61
				C802.74,898.04,791.98,918.12,808.37,929.84z M764.97,950.53c0,0.99,0,1.97,0,2.96c-0.66,0.66-1.31,1.31-1.97,1.97
				c-1.31,0-2.63,0-3.94,0c-0.66-0.33-1.31-0.66-1.97-0.99c0-1.97,0-3.94,0-5.91C761.53,948.85,762.38,949.27,764.97,950.53z
				 M748.21,952.5c-0.33,0.99-0.66,1.97-0.99,2.96c-2.3,0-4.6,0-6.9,0c-1.45-3.06-1.71-3.25-0.99-6.9c2.63,0,5.26,0,7.89,0
				C747.55,949.88,747.88,951.19,748.21,952.5z M667.34,794.83c0.99,21.02,1.97,42.05,2.96,63.07c-9.53,4.27-19.07,8.54-28.6,12.81
				c1.97-26.61,3.94-53.22,5.92-79.82C654.19,792.2,660.77,793.51,667.34,794.83z M665.37,755.41c-5.59-0.99-11.18-1.97-16.77-2.96
				c-0.33-0.33-0.66-0.66-0.99-0.99c0.66-5.26,1.31-10.51,1.97-15.77c5.59,2.63,11.18,5.26,16.77,7.88c0,3.61,0,7.23,0,10.84
				C666.03,754.75,665.7,755.08,665.37,755.41z M681.15,736.68c-3.15-6.68-1.41-17.95,0-24.64c8.19-38.77,24.11-29.1,54.24-43.36
				c47.4-1.05,100.46,12.18,84.81,67.01C777.83,746.57,724.46,745.6,681.15,736.68z M752.15,798.77c-0.33,0.33-0.66,0.66-0.99,0.99
				c-0.33,0-0.66,0-0.99,0c-0.33-4.27-0.66-8.54-0.99-12.81C753,789.09,752.61,792.79,752.15,798.77z M681.15,772.16
				c0.33,2.96,0.66,5.91,0.99,8.87c-5.08,2.5-8.08,1.45-12.82-0.99c0.33-3.94,0.66-7.88,0.99-11.83c2.96,0,5.92,0,8.88,0
				C679.83,769.53,680.49,770.85,681.15,772.16z M668.33,871.69c0.99,0,1.97,0,2.96,0c0.99,5.91,1.97,11.83,2.96,17.74
				c-5.42,5.99-27.76,0.06-33.53-3.94c0-0.33,0-0.66,0-0.99C649.92,880.23,659.12,875.96,668.33,871.69z M674.24,905.2
				c3.62,0,7.23,0,10.85,0c1.66,3.38,2.18,7.9,1.97,13.8c-3.62,0.33-7.23,0.66-10.85,0.99c-0.66-0.99-1.31-1.97-1.97-2.96
				C674.24,913.08,674.24,909.14,674.24,905.2z M813.3,906.19c4.93-0.33,9.86-0.66,14.79-0.99c0,3.94,0,7.88,0,11.83
				c-0.99,0.66-1.97,1.31-2.96,1.97c-2.96,0.33-5.92,0.66-8.88,0.99c-0.99-4.27-1.97-8.54-2.96-12.81
				C813.3,906.84,813.3,906.51,813.3,906.19z M820.2,783c-1.52-2.94-2.76-6.91-0.99-10.84c0.99-1.31,1.97-2.63,2.96-3.94
				c2.63,0,5.26,0,7.89,0c0,3.61,0,7.23,0,10.84c-0.33,0.99-0.66,1.97-0.99,2.96C826.12,782.34,823.16,782.67,820.2,783z
				 M660.44,612.51c20.14-12.04,38.51,3.73,41.42,21.68c-4.42,5.33-19.66,12.96-27.61,13.8c-1.04-16.31-9.42-22.75-13.81-34.49
				C660.44,613.17,660.44,612.84,660.44,612.51z M649.59,623.35c6.91,2.51,17.99,24.49,13.81,36.46
				c-3.94,5.91-7.89,11.83-11.83,17.74c-0.66,0.33-1.31,0.66-1.97,0.99C644.73,662.88,644.26,638.4,649.59,623.35z M633.81,763.29
				c7.23,0.99,14.47,1.97,21.7,2.96c3.67,2.43,3.32,6.58,2.96,12.81c-0.33,0.33-0.66,0.66-0.99,0.99
				c-7.56-1.64-15.12-3.28-22.68-4.93C633.14,771.82,632.27,767.65,633.81,763.29z M629.86,897.32c10.19,1.97,20.38,3.94,30.57,5.91
				c0.33,3.94,0.66,7.88,0.99,11.83c-0.66,0.33-1.31,0.66-1.97,0.99c-10.19-1.97-20.38-3.94-30.57-5.91
				C627.47,905.56,628.06,900.8,629.86,897.32z M625.92,959.4c-0.99-0.33-1.97-0.66-2.96-0.99c0-2.3,0-4.6,0-6.9
				c3.62-2.96,7.23-5.91,10.85-8.87c0.99,0.33,1.97,0.66,2.96,0.99c2.41,1.5,3.34,2.7,4.93,4.93
				C637.02,953.29,632.74,956.65,625.92,959.4z M660.44,947.58c-0.66,0-1.31,0-1.97,0c-5.95-4.31-12.44-12.04-13.81-20.7
				c7.56,0.99,15.12,1.97,22.68,2.96C668.55,936.81,663.56,941.86,660.44,947.58z M675.23,976.16c-0.99,0.33-1.97,0.66-2.96,0.99
				c0-1.64,0-3.28,0-4.93c1.31,0.66,2.63,1.31,3.94,1.97C675.89,974.84,675.56,975.5,675.23,976.16z M671.28,956.45
				c0-1.31,0-2.63,0-3.94c2.3-3.28,4.6-6.57,6.9-9.85c14.91,1.61,27.71,6.86,45.37,6.9c1.64,3.61,3.29,7.23,4.93,10.84
				c13.24,8.52,46.69,9.89,48.32-9.85c15.78-2.3,31.56-4.6,47.34-6.9c2.96,3.61,5.92,7.23,8.88,10.84
				C809.43,980.61,700.11,970.75,671.28,956.45z M829.08,892.39c0.33-6.9,0.66-13.8,0.99-20.7c9.08-1.49,20.13,6.94,29.59,9.85
				c0.66,0.99,1.31,1.97,1.97,2.96C856.44,889.88,838.74,892.42,829.08,892.39z M848.8,944.62c-1.31,0.99-2.63,1.97-3.94,2.96
				c-3.29-4.27-6.58-8.54-9.86-12.81c0-1.31,0-2.63,0-3.94c5.92-1.31,11.83-2.63,17.75-3.94c0.99,0,1.97,0,2.96,0
				c0.66,0.99,1.31,1.97,1.97,2.96C854.72,934.76,851.76,939.69,848.8,944.62z M880.36,958.42c-9.09,1.35-12.68-3.65-18.74-7.88
				c0-0.66,0-1.31,0-1.97c1.97-1.97,3.94-3.94,5.92-5.91c4.6,3.61,9.21,7.23,13.81,10.84C881.02,955.13,880.69,956.77,880.36,958.42
				z"/>
			<path class="st1" d="M745.25,925.9c0.66,0.66,1.31,1.31,1.97,1.97c1.64,0,3.29,0,4.93,0c0.66-0.99,1.31-1.97,1.97-2.96
				c0.33-36.13,0.66-72.27,0.99-108.4c-2.3-0.66-4.6-1.31-6.9-1.97C741.01,823.5,741.96,908.89,745.25,925.9z"/>
		</g>
	</g>
</g>
</svg>
